<svg width="9" height="15" viewBox="0 0 9 15" fill="none" xmlns="http://www.w3.org/2000/svg">
<path d="M7.65 0H1.35C0.605564 0 0 0.630795 0 1.40625V13.5938C0 14.3692 0.605564 15 1.35 15H7.65C8.39444 15 9 14.3692 9 13.5938V1.40625C9 0.630795 8.39444 0 7.65 0ZM1.35 0.9375H7.65C7.89829 0.9375 8.1 1.14761 8.1 1.40625V11.25H0.9V1.40625C0.9 1.14761 1.10171 0.9375 1.35 0.9375ZM7.65 14.0625H1.35C1.10171 14.0625 0.9 13.8524 0.9 13.5938V12.1875H8.1V13.5938C8.1 13.8524 7.89829 14.0625 7.65 14.0625Z" fill="#757575"/>
<path d="M2.11829 12.7936C2.29403 12.9767 2.29403 13.2736 2.11829 13.4567C1.94255 13.6399 1.65764 13.6399 1.4819 13.4567C1.30616 13.2736 1.30616 12.9767 1.4819 12.7936C1.65764 12.6105 1.94255 12.6105 2.11829 12.7936Z" fill="#757575"/>
</svg>
